<?xml version="1.0" encoding="utf-8"?>
<!-- Generator: Adobe Illustrator 22.1.0, SVG Export Plug-In . SVG Version: 6.00 Build 0)  -->
<svg version="1.1" id="Слой_1" xmlns="http://www.w3.org/2000/svg" xmlns:xlink="http://www.w3.org/1999/xlink" x="0px" y="0px"
	 viewBox="0 0 10 10" style="enable-background:new 0 0 10 10;" xml:space="preserve">
<style type="text/css">
	.st0{fill:#A14944;}
</style>
<g>
	<path class="st0" d="M0.5,3.7c0-0.6,0-1.2-0.1-1.7h1l0.1,1h0c0.4-0.6,0.9-1.2,2-1.2c0.9,0,1.5,0.5,1.8,1.3h0
		c0.2-0.4,0.4-0.6,0.7-0.8C6.4,2,6.9,1.9,7.5,1.9c0.8,0,2.1,0.5,2.1,2.7v3.7H8.4V4.7C8.4,3.5,8,2.8,7,2.8c-0.7,0-1.2,0.5-1.4,1
		C5.6,4,5.6,4.2,5.6,4.4v3.9H4.5V4.5c0-1-0.4-1.7-1.3-1.7c-0.7,0-1.2,0.6-1.4,1.1C1.7,4.1,1.7,4.3,1.7,4.5v3.8H0.5V3.7z"/>
</g>
</svg>
